<svg xmlns="http://www.w3.org/2000/svg" width="18.442" height="18.441" viewBox="0 0 18.442 18.441"><path d="M9.22,0A9.22,9.22,0,0,0,5.86,17.807a8.838,8.838,0,0,1,.032-2.645c.168-.72,1.082-4.583,1.082-4.583A3.329,3.329,0,0,1,6.7,9.21c0-1.282.743-2.24,1.668-2.24a1.158,1.158,0,0,1,1.167,1.3,18.556,18.556,0,0,1-.763,3.07A1.339,1.339,0,0,0,10.135,13c1.639,0,2.9-1.728,2.9-4.222A3.64,3.64,0,0,0,9.182,5.032a3.991,3.991,0,0,0-4.163,4,3.587,3.587,0,0,0,.686,2.1.277.277,0,0,1,.064.265c-.07.291-.225.918-.256,1.045-.04.169-.134.2-.308.123A4.132,4.132,0,0,1,3.333,9c0-2.908,2.113-5.58,6.092-5.58A5.411,5.411,0,0,1,15.11,8.744c0,3.178-2,5.735-4.784,5.735a2.467,2.467,0,0,1-2.113-1.059s-.463,1.76-.574,2.192A10.292,10.292,0,0,1,6.492,18.03,9.221,9.221,0,1,0,9.22,0Z" fill="#676767"/></svg>