<svg xmlns="http://www.w3.org/2000/svg" width="15.857" height="12.885" viewBox="0 0 15.857 12.885"><path d="M4.987,12.886a9.194,9.194,0,0,0,9.257-9.257c0-.141,0-.281-.01-.421a6.619,6.619,0,0,0,1.623-1.684,6.485,6.485,0,0,1-1.869.512,3.264,3.264,0,0,0,1.43-1.8,6.518,6.518,0,0,1-2.066.79A3.256,3.256,0,0,0,7.809,3.994,9.237,9.237,0,0,1,1.1.594,3.256,3.256,0,0,0,2.111,4.937,3.225,3.225,0,0,1,.634,4.53v.041a3.254,3.254,0,0,0,2.61,3.189,3.248,3.248,0,0,1-1.469.056,3.258,3.258,0,0,0,3.04,2.259,6.531,6.531,0,0,1-4.04,1.4A6.584,6.584,0,0,1,0,11.424a9.211,9.211,0,0,0,4.987,1.459" transform="translate(0 -0.001)" fill="#676767"/></svg>